<svg width="32" height="32" viewBox="0 0 32 32" fill="none" xmlns="http://www.w3.org/2000/svg">
  <defs>
    <linearGradient id="faviconGradient" x1="0%" y1="0%" x2="100%" y2="100%">
      <stop offset="0%" style="stop-color:#F48024;stop-opacity:1" />
      <stop offset="100%" style="stop-color:#FF9A56;stop-opacity:1" />
    </linearGradient>
  </defs>
  
  <!-- Background circle -->
  <circle cx="16" cy="16" r="16" fill="#FFFFFF"/>
  
  <!-- Left wing/triangle with rounded corners -->
  <path d="M4 10 Q4 7 7 7 L12 5 Q14 5 14 8 L14 18 Q14 21 12 21 L7 19 Q4 19 4 16 Z" 
        fill="url(#faviconGradient)" />
  
  <!-- Right wing/triangle (overlapping) with rounded corners -->
  <path d="M14 5 Q16 5 19 7 L24 10 Q28 10 28 13 L26 19 Q26 22 23 22 L18 20 Q16 20 14 18 Z" 
        fill="url(#faviconGradient)" 
        opacity="0.85" />
  
  <!-- Center connecting element -->
  <circle cx="16" cy="13" r="2" fill="#242729" opacity="0.9" />
</svg>
