<svg width="48" height="48" viewBox="0 0 48 48" fill="none" xmlns="http://www.w3.org/2000/svg">
  <defs>
    <linearGradient id="logoGradient" x1="0%" y1="0%" x2="100%" y2="100%">
      <stop offset="0%" style="stop-color:#F48024;stop-opacity:1" />
      <stop offset="100%" style="stop-color:#FF9A56;stop-opacity:1" />
    </linearGradient>
    <filter id="shadow" x="-20%" y="-20%" width="140%" height="140%">
      <feDropShadow dx="1" dy="2" stdDeviation="2" flood-opacity="0.1"/>
    </filter>
  </defs>
  
  <!-- Left wing/triangle with rounded corners -->
  <path d="M6 14 Q6 10 10 10 L18 8 Q22 8 22 12 L22 22 Q22 26 18 26 L10 24 Q6 24 6 20 Z" 
        fill="url(#logoGradient)" 
        filter="url(#shadow)" />
  
  <!-- Right wing/triangle (overlapping) with rounded corners -->
  <path d="M22 8 Q26 8 30 10 L38 12 Q42 12 42 16 L40 24 Q40 28 36 28 L28 26 Q24 26 22 22 Z" 
        fill="url(#logoGradient)" 
        opacity="0.85" 
        filter="url(#shadow)" />
  
  <!-- Center connecting element with subtle styling -->
  <circle cx="24" cy="18" r="3" fill="#242729" opacity="0.9" />
  
  <!-- Subtle highlight on the overlapping area -->
  <path d="M20 12 L28 12 L26 20 L22 20 Z" 
        fill="#FFFFFF" 
        opacity="0.2" />
</svg>